<svg width="29" height="36" viewBox="0 0 29 36" fill="none" xmlns="http://www.w3.org/2000/svg">
<path d="M25.6797 9.89399L2.53533 2.17765C1.83533 1.94432 1.48533 1.82766 1.24267 2.00266C1 2.17766 1 2.54632 1 3.28599V20.3333L25.6797 12.106C27.0517 11.6487 27.7377 11.42 27.7377 11C27.7377 10.58 27.0517 10.3513 25.6797 9.89399Z" fill="#F25037"/>
<path d="M1 20.3333V3.28599C1 2.54632 1 2.17766 1.24267 2.00266C1.48533 1.82766 1.83533 1.94432 2.53533 2.17765L25.6797 9.89399C27.0517 10.3513 27.7377 10.58 27.7377 11C27.7377 11.42 27.0517 11.6487 25.6797 12.106L1 20.3333ZM1 20.3333V34.3333" stroke="black" stroke-width="2" stroke-linecap="round"/>
</svg>
