<svg width="36" height="45" viewBox="0 0 36 45" fill="none" xmlns="http://www.w3.org/2000/svg">
<path d="M9.85742 1.78693C12.8375 1.72307 15.7359 2.72561 18.0342 4.60333L18.4854 4.99103L19.2617 5.71661L19.2725 5.72736L19.2852 5.7381C21.1087 7.33568 23.4506 8.21661 25.875 8.21661C28.2994 8.21661 30.6413 7.33567 32.4648 5.7381L32.4727 5.73126L32.4795 5.72443L33.001 5.24884C33.7502 4.67192 34.8773 5.14408 34.9912 6.08575L35 6.27228V26.4998C35 26.666 34.9667 26.8309 34.9023 26.9842C34.8541 27.099 34.7885 27.2054 34.709 27.3006L34.625 27.3924C32.3545 29.6181 29.3213 30.8945 26.1426 30.9627C22.9638 31.0308 19.8774 29.8851 17.5137 27.7586L16.7383 27.034L16.7275 27.0233L16.7148 27.0125L16.3779 26.7303C14.6664 25.3587 12.5475 24.5848 10.3467 24.5359C7.99911 24.4839 5.70805 25.2598 3.875 26.7274L3.5 27.0272V42.2498C3.49942 42.568 3.37751 42.8739 3.15918 43.1053C2.94047 43.337 2.64129 43.4763 2.32324 43.4949C2.00519 43.5136 1.69158 43.4104 1.44727 43.2059C1.20648 43.0042 1.05104 42.7192 1.01074 42.408L1 42.2225V6.24982L1.00586 6.12579C1.01822 6.00232 1.04943 5.88125 1.09766 5.76642C1.16205 5.61317 1.25629 5.4736 1.375 5.35724C3.64543 3.13165 6.67882 1.8551 9.85742 1.78693Z" fill="#F24822" stroke="black" stroke-width="2"/>
</svg>
