<svg width="36" height="45" viewBox="0 0 36 45" fill="none" xmlns="http://www.w3.org/2000/svg">
<path d="M9.85742 1.78687C12.8375 1.723 15.7359 2.72555 18.0342 4.60327L18.4854 4.99097L19.2617 5.71655L19.2725 5.72729L19.2852 5.73804C21.1087 7.33561 23.4506 8.21655 25.875 8.21655C28.2994 8.21655 30.6413 7.33561 32.4648 5.73804L32.4727 5.7312L32.4795 5.72437L33.001 5.24878C33.7502 4.67186 34.8773 5.14402 34.9912 6.08569L35 6.27222V26.4998C35 26.666 34.9667 26.8309 34.9023 26.9841C34.8541 27.0989 34.7885 27.2053 34.709 27.3005L34.625 27.3923C32.3545 29.618 29.3213 30.8945 26.1426 30.9626C22.9638 31.0308 19.8774 29.885 17.5137 27.7585L16.7383 27.0339L16.7275 27.0232L16.7148 27.0125L16.3779 26.7302C14.6664 25.3587 12.5475 24.5847 10.3467 24.5359C7.99911 24.4838 5.70805 25.2597 3.875 26.7273L3.5 27.0271V42.2498C3.49942 42.5679 3.37751 42.8738 3.15918 43.1052C2.94047 43.3369 2.64129 43.4762 2.32324 43.4949C2.00519 43.5135 1.69158 43.4103 1.44727 43.2058C1.20648 43.0041 1.05104 42.7191 1.01074 42.408L1 42.2224V6.24976L1.00586 6.12573C1.01822 6.00226 1.04943 5.88119 1.09766 5.76636C1.16205 5.61311 1.25629 5.47354 1.375 5.35718C3.64543 3.13159 6.67882 1.85504 9.85742 1.78687Z" fill="white" stroke="black" stroke-width="2"/>
</svg>
